<mxfile host="app.diagrams.net" modified="2023-10-03T07:19:36.626Z" agent="Mozilla/5.0 (Windows NT 10.0; Win64; x64) AppleWebKit/537.36 (KHTML, like Gecko) Chrome/117.0.0.0 Safari/537.36 Edg/117.0.2045.40" version="21.8.2" etag="UtOvjlNdgjWb5RCFh8DZ" type="github">
  <diagram name="Page-1" id="CKcbLUXGOx12zwsdC1VI">
    <mxGraphModel>
      <root>
        <mxCell id="0" />
        <mxCell id="1" parent="0" />
      </root>
    </mxGraphModel>
  </diagram>
</mxfile>
